<svg width="126" height="26" fill="none" xmlns="http://www.w3.org/2000/svg"><path d="M41.523 16.352h-4.406L36.195 19h-2.054l4.297-11.375h1.773L44.516 19h-2.063l-.93-2.648Zm-3.851-1.594h3.297l-1.649-4.719-1.648 4.719Zm14.984.101c0 1.308-.297 2.352-.89 3.133-.594.776-1.391 1.164-2.391 1.164-.927 0-1.67-.304-2.227-.914v4.008H45.25V10.547H47l.078.86c.557-.678 1.315-1.016 2.274-1.016 1.03 0 1.838.385 2.421 1.156.589.765.883 1.83.883 3.195v.117Zm-1.89-.164c0-.843-.17-1.513-.508-2.008-.334-.494-.813-.742-1.438-.742-.776 0-1.333.32-1.672.961v3.75c.344.657.907.985 1.688.985.604 0 1.075-.243 1.414-.727.344-.49.516-1.23.516-2.219Zm10.906.164c0 1.308-.297 2.352-.89 3.133-.594.776-1.391 1.164-2.391 1.164-.927 0-1.67-.304-2.227-.914v4.008h-1.898V10.547h1.75l.078.86c.557-.678 1.315-1.016 2.273-1.016 1.031 0 1.839.385 2.422 1.156.589.765.883 1.83.883 3.195v.117Zm-1.89-.164c0-.843-.17-1.513-.509-2.008-.333-.494-.812-.742-1.437-.742-.776 0-1.333.32-1.672.961v3.75c.344.657.906.985 1.688.985.604 0 1.075-.243 1.414-.727.343-.49.515-1.23.515-2.219Zm13.616 1.375c0-.5-.177-.885-.53-1.156-.35-.27-.983-.544-1.9-.82-.916-.276-1.645-.584-2.187-.922-1.036-.651-1.554-1.5-1.554-2.547 0-.917.372-1.672 1.117-2.266.75-.593 1.721-.89 2.914-.89.791 0 1.497.146 2.117.437.62.292 1.107.709 1.46 1.25.355.537.532 1.133.532 1.79h-1.969c0-.594-.187-1.058-.562-1.391-.37-.339-.901-.508-1.594-.508-.646 0-1.148.138-1.508.414-.354.276-.53.661-.53 1.156 0 .417.192.766.577 1.047.386.276 1.021.547 1.906.813.886.26 1.597.56 2.133.898.537.333.93.719 1.18 1.156.25.432.375.94.375 1.524 0 .948-.365 1.703-1.094 2.265-.724.558-1.708.836-2.953.836-.823 0-1.58-.15-2.273-.453-.688-.307-1.224-.729-1.61-1.265-.38-.537-.57-1.162-.57-1.875h1.977c0 .645.213 1.145.64 1.5.427.354 1.04.53 1.836.53.688 0 1.203-.137 1.547-.413.349-.282.523-.651.523-1.11Zm5.907-7.578v2.055h1.492v1.406h-1.492v4.719c0 .323.062.557.187.703.13.14.36.21.688.21.218 0 .44-.025.664-.077v1.469c-.432.12-.85.18-1.25.18-1.459 0-2.188-.805-2.188-2.415v-4.789h-1.39v-1.406h1.39V8.492h1.899Zm2.36 6.203c0-.828.163-1.573.491-2.234.328-.667.79-1.177 1.383-1.531.594-.36 1.276-.54 2.047-.54 1.14 0 2.065.368 2.773 1.102.714.735 1.1 1.708 1.157 2.922l.007.445c0 .834-.161 1.579-.484 2.235a3.52 3.52 0 0 1-1.375 1.523c-.594.36-1.281.54-2.062.54-1.193 0-2.149-.397-2.868-1.188-.713-.797-1.07-1.857-1.07-3.18v-.094Zm1.897.164c0 .87.18 1.553.54 2.047.359.49.859.735 1.5.735.64 0 1.138-.25 1.492-.75.36-.5.539-1.232.539-2.196 0-.854-.185-1.53-.555-2.03-.365-.5-.862-.75-1.492-.75-.62 0-1.112.247-1.477.741-.364.49-.546 1.224-.546 2.203Zm11.993-2.578a4.705 4.705 0 0 0-.774-.062c-.87 0-1.456.333-1.758 1V19h-1.898v-8.453h1.813l.046.945c.459-.734 1.094-1.101 1.907-1.101.27 0 .494.036.671.109l-.007 1.781Zm4.765 6.875c-1.203 0-2.18-.377-2.93-1.133-.744-.76-1.117-1.77-1.117-3.03v-.235c0-.844.162-1.596.485-2.258a3.738 3.738 0 0 1 1.375-1.555 3.625 3.625 0 0 1 1.969-.554c1.151 0 2.039.367 2.664 1.101.63.735.945 1.774.945 3.117v.766h-5.523c.057.698.289 1.25.695 1.656.411.407.927.61 1.547.61.869 0 1.578-.352 2.125-1.055l1.023.977a3.441 3.441 0 0 1-1.359 1.18c-.563.275-1.196.413-1.899.413Zm-.226-7.242c-.521 0-.943.182-1.266.547-.318.364-.52.872-.61 1.523h3.618v-.14c-.042-.636-.211-1.115-.508-1.438-.297-.328-.708-.492-1.234-.492Z" fill="#fff"/><g clip-path="url(#a)"><path d="M16.872 4.12c.828-1.001 1.41-2.36 1.38-3.745a.387.387 0 0 0-.446-.37c-1.216.185-2.574.946-3.414 1.93-.775.896-1.463 2.289-1.411 3.668a.383.383 0 0 0 .391.368c1.341-.038 2.665-.84 3.5-1.851Z" fill="#D6D6D8"/><path d="M14.027 5.603C13.947 3.464 15.561.966 18.18.161a.39.39 0 0 0-.374-.156c-1.215.185-2.574.946-3.414 1.93-.775.896-1.463 2.289-1.411 3.668a.383.383 0 0 0 .391.368c.26-.007.52-.044.775-.105a.381.381 0 0 1-.12-.263Z" fill="#C2C2C4"/><path d="M23.344 18.927c-.841-.424-3.165-1.887-3.194-5.131-.024-2.656 1.738-4.2 2.487-4.739a.386.386 0 0 0 .082-.551 5.634 5.634 0 0 0-2.05-1.633 6.988 6.988 0 0 0-.37-.16c-3.52-1.386-5.738.738-7.082.738-1.028 0-2.616-1.162-4.298-1.13-2.21.031-4.247 1.285-5.387 3.264-1.748 3.035-1.172 7.184.19 10.418.036.083.091.212.138.316.394.886.846 1.696 1.322 2.385 1.094 1.58 2.398 3.36 4.111 3.294 1.65-.065 2.273-1.066 4.266-1.066 1.992 0 2.554 1.066 4.297 1.035 1.776-.034 2.9-1.613 3.985-3.2a14.536 14.536 0 0 0 1.694-3.37.385.385 0 0 0-.19-.47Z" fill="#D6D6D8"/><path d="M6.229 22.704a14.847 14.847 0 0 1-1.323-2.385 19.973 19.973 0 0 1-.137-.316c-1.354-3.213-1.945-7.372-.19-10.418 1.053-1.827 2.87-3.036 4.883-3.235a3.929 3.929 0 0 0-.543-.03c-2.21.032-4.247 1.286-5.387 3.265-1.748 3.035-1.172 7.184.19 10.418a19.509 19.509 0 0 0 .138.316c.394.886.846 1.696 1.322 2.385 1.094 1.58 2.398 3.36 4.111 3.294.169-.006.326-.023.476-.047-1.438-.292-2.572-1.848-3.54-3.247Z" fill="#C2C2C4"/></g><defs><clipPath id="a"><path fill="#fff" d="M0 0h26v26H0z"/></clipPath></defs></svg>