<svg width="126" height="26" fill="none" xmlns="http://www.w3.org/2000/svg"><path d="M43.875 17.523c-.411.537-.982.943-1.71 1.22-.73.275-1.558.413-2.485.413-.953 0-1.797-.216-2.532-.648-.734-.432-1.302-1.05-1.703-1.852-.395-.807-.601-1.747-.617-2.82v-.89c0-1.72.412-3.06 1.234-4.024.823-.969 1.972-1.453 3.446-1.453 1.265 0 2.27.312 3.015.937.745.625 1.193 1.526 1.344 2.703H41.93c-.22-1.37-1.013-2.054-2.383-2.054-.886 0-1.56.32-2.024.96-.458.636-.695 1.57-.71 2.805v.875c0 1.23.257 2.185.773 2.867.52.678 1.242 1.016 2.164 1.016 1.01 0 1.73-.229 2.156-.687v-2.227h-2.343v-1.5h4.312v4.36Zm1.633-2.828c0-.828.164-1.573.492-2.234.328-.667.79-1.177 1.383-1.531.594-.36 1.276-.54 2.047-.54 1.14 0 2.065.368 2.773 1.102.714.735 1.1 1.708 1.156 2.922l.008.445c0 .834-.161 1.579-.484 2.235a3.52 3.52 0 0 1-1.375 1.523c-.594.36-1.281.54-2.063.54-1.192 0-2.148-.397-2.867-1.188-.713-.797-1.07-1.857-1.07-3.18v-.094Zm1.898.164c0 .87.18 1.553.54 2.047.359.49.859.735 1.5.735.64 0 1.137-.25 1.492-.75.359-.5.539-1.232.539-2.196 0-.854-.185-1.53-.555-2.03-.365-.5-.862-.75-1.492-.75-.62 0-1.112.247-1.477.741-.364.49-.547 1.224-.547 2.203Zm7.211-.164c0-.828.164-1.573.492-2.234.328-.667.79-1.177 1.383-1.531.594-.36 1.276-.54 2.047-.54 1.14 0 2.065.368 2.773 1.102.714.735 1.1 1.708 1.157 2.922l.008.445c0 .834-.162 1.579-.485 2.235a3.52 3.52 0 0 1-1.375 1.523c-.594.36-1.281.54-2.062.54-1.193 0-2.149-.397-2.867-1.188-.714-.797-1.07-1.857-1.07-3.18v-.094Zm1.899.164c0 .87.18 1.553.539 2.047.36.49.86.735 1.5.735s1.138-.25 1.492-.75c.36-.5.539-1.232.539-2.196 0-.854-.185-1.53-.555-2.03-.364-.5-.862-.75-1.492-.75-.62 0-1.112.247-1.477.741-.364.49-.546 1.224-.546 2.203Zm7.234-.148c0-1.313.307-2.36.922-3.14.62-.787 1.44-1.18 2.46-1.18.964 0 1.722.336 2.274 1.007l.086-.851h1.711v8.195c0 1.11-.346 1.985-1.039 2.625-.687.64-1.617.961-2.789.961a4.49 4.49 0 0 1-1.82-.39c-.589-.256-1.037-.592-1.344-1.008l.898-1.14c.584.692 1.303 1.038 2.157 1.038.63 0 1.127-.172 1.492-.515.364-.339.547-.839.547-1.5v-.57c-.547.609-1.276.913-2.188.913-.99 0-1.8-.393-2.43-1.18-.624-.786-.937-1.874-.937-3.265Zm1.89.164c0 .849.172 1.518.516 2.008.35.484.831.726 1.446.726.765 0 1.333-.328 1.703-.984v-3.719c-.36-.64-.922-.96-1.688-.96-.625 0-1.112.247-1.46.742-.344.494-.516 1.223-.516 2.187ZM75.18 19H73.28V7h1.899v12Zm5.797.156c-1.204 0-2.18-.377-2.93-1.133-.745-.76-1.117-1.77-1.117-3.03v-.235c0-.844.161-1.596.484-2.258a3.737 3.737 0 0 1 1.375-1.555 3.625 3.625 0 0 1 1.969-.554c1.15 0 2.039.367 2.664 1.101.63.735.945 1.774.945 3.117v.766h-5.523c.057.698.289 1.25.695 1.656.412.407.927.61 1.547.61.87 0 1.578-.352 2.125-1.055l1.023.977a3.442 3.442 0 0 1-1.359 1.18c-.563.275-1.195.413-1.898.413Zm-.227-7.242c-.52 0-.943.182-1.266.547-.317.364-.52.872-.609 1.523h3.617v-.14c-.041-.636-.21-1.115-.508-1.438-.296-.328-.708-.492-1.234-.492Zm11.242 2.86V19h-1.976V7.625h4.351c1.271 0 2.279.33 3.024.992.75.662 1.125 1.537 1.125 2.625 0 1.115-.368 1.982-1.102 2.602-.73.62-1.752.93-3.07.93h-2.352Zm0-1.586h2.375c.703 0 1.24-.165 1.61-.493.37-.333.554-.812.554-1.437 0-.615-.187-1.104-.562-1.469-.375-.37-.89-.56-1.547-.57h-2.43v3.969ZM102.086 19h-1.898V7h1.898v12Zm7.125 0c-.083-.162-.156-.424-.219-.79a2.955 2.955 0 0 1-2.219.946c-.849 0-1.541-.242-2.078-.726-.536-.485-.804-1.084-.804-1.797 0-.901.333-1.591 1-2.07.671-.485 1.63-.727 2.875-.727h1.164v-.555c0-.437-.123-.786-.368-1.047-.244-.265-.617-.398-1.117-.398-.432 0-.786.11-1.062.328a.993.993 0 0 0-.414.82h-1.899c0-.463.154-.896.461-1.296.308-.407.724-.725 1.25-.954a4.434 4.434 0 0 1 1.774-.343c.989 0 1.778.25 2.367.75.588.494.89 1.192.906 2.093v3.813c0 .76.107 1.367.32 1.82V19h-1.937Zm-2.086-1.367c.375 0 .727-.091 1.055-.274.333-.182.583-.427.75-.734v-1.594h-1.024c-.703 0-1.232.123-1.586.367-.354.245-.531.592-.531 1.04 0 .364.12.656.359.875.245.213.571.32.977.32Zm8.523-1.352 1.719-5.734h2.024l-3.36 9.734c-.515 1.422-1.39 2.133-2.625 2.133-.276 0-.58-.047-.914-.14v-1.47l.36.024c.479 0 .838-.088 1.078-.265.244-.172.437-.464.578-.875l.273-.727-2.969-8.414h2.047l1.789 5.734Z" fill="#150C01"/><g clip-path="url(#a)"><path d="M18.425 13 2.41.577A2.653 2.653 0 0 0 1.385 2.69v20.62a2.65 2.65 0 0 0 1.026 2.112L18.425 13Z" fill="#9DC6FB"/><path d="m23.272 10.674-3.875-2.237-3.396.424L14.834 13l.593 3.962 3.97.6 3.875-2.236c1.79-1.034 1.79-3.618 0-4.652Z" fill="#FFE07D"/><path d="M19.397 8.437 5.414.364a2.671 2.671 0 0 0-3.003.213L14.834 13l4.563-4.563Z" fill="#DD5790"/><path d="M19.397 17.563 14.834 13 2.411 25.422a2.67 2.67 0 0 0 3.003.214l13.983-8.073Z" fill="#95D6A4"/><path d="M4.412 2.69c0-.18.017-.355.05-.522L2.412.578A2.652 2.652 0 0 0 1.384 2.69v20.62c0 .888.413 1.633 1.026 2.112l2.05-1.59a2.739 2.739 0 0 1-.049-.522V2.69Z" fill="#80B4FB"/><path d="M5.592.466 5.414.364a2.673 2.673 0 0 0-3.003.214L4.415 2.58A2.65 2.65 0 0 1 5.438.578c.05-.04.102-.077.154-.112Z" fill="#DA387D"/><path d="M5.439 25.422a2.65 2.65 0 0 1-1.024-2.003L2.41 25.422a2.67 2.67 0 0 0 3.003.214l.178-.102a2.63 2.63 0 0 1-.153-.112Z" fill="#78C2A4"/></g><defs><clipPath id="a"><path fill="#fff" transform="matrix(1 0 0 -1 0 26)" d="M0 0h26v26H0z"/></clipPath></defs></svg>